<svg width="128" height="36" viewBox="0 0 128 36" fill="none" xmlns="http://www.w3.org/2000/svg">
<g clip-path="url(#clip0_1_216)">
<path d="M18.1246 0.5C14.6666 0.5 11.2862 1.52069 8.41102 3.433C5.53583 5.34531 3.29483 8.06334 1.97152 11.2434C0.6482 14.4235 0.301961 17.9227 0.976581 21.2986C1.6512 24.6746 3.3164 27.7755 5.76155 30.2092C8.20673 32.6432 11.3221 34.3008 14.7136 34.9725C18.1052 35.6439 21.6206 35.2992 24.8155 33.9822C28.0103 32.6648 30.7406 30.4341 32.662 27.5722C34.5831 24.7102 35.6085 21.3454 35.6085 17.9034C35.6085 13.2877 33.7665 8.86108 30.4876 5.59734C27.2086 2.33356 22.7616 0.5 18.1246 0.5ZM28.8646 20.4468C28.8646 20.7948 27.2861 20.8446 27.2861 21.1926C27.2861 21.5407 28.8472 22.0131 28.8472 22.493C28.8472 23.0796 25.6301 23.1666 25.6301 23.7535C25.6301 24.38 28.0703 24.186 28.0703 24.8648C28.0703 25.6653 21.9411 25.2923 21.9411 26.1252C21.9411 26.4434 22.7254 26.5753 23.707 26.6797C24.2465 26.7393 24.129 27.0028 23.8219 27.177C22.106 28.219 20.1347 28.7705 18.1246 28.7705C16.1144 28.7705 14.1432 28.219 12.4273 27.177C12.1226 26.9905 12.0027 26.727 12.5422 26.6797C13.5238 26.5753 14.3106 26.4311 14.3106 26.1252C14.3106 25.2923 8.17869 25.6653 8.17869 24.8648C8.17869 24.186 10.6215 24.3675 10.6215 23.7535C10.6215 23.1666 7.40195 23.0796 7.40195 22.493C7.40195 22.0131 8.96553 21.5482 8.96553 21.1926C8.96553 20.8371 7.38445 20.7973 7.38445 20.4468C7.38445 20.0962 8.53841 19.87 8.53841 19.6213C8.53841 19.1515 7.19711 20.0067 7.19711 17.9034C7.19711 15.0186 8.34845 12.252 10.3977 10.2121C12.447 8.17225 15.2264 7.02626 18.1246 7.02626C21.0227 7.02626 23.8022 8.17225 25.8515 10.2121C27.9008 12.252 29.0519 15.0186 29.0519 17.9034C29.0519 20.0067 27.7108 19.1465 27.7108 19.6213C27.7108 19.87 28.8646 20.0714 28.8646 20.4468Z" fill="#3BAC43"/>
<path d="M50.7456 26.3522C51.838 26.3522 52.8141 26.1687 53.6743 25.8018C54.5484 25.4349 55.2856 24.9523 55.8864 24.3544C56.4871 23.7427 56.9173 23.0769 57.1766 22.3564L54.678 21.1944C54.3775 21.9555 53.8862 22.5876 53.2034 23.0903C52.5342 23.5796 51.715 23.8243 50.7456 23.8243C49.7898 23.8243 48.9502 23.6001 48.2264 23.1516C47.5028 22.7031 46.936 22.0847 46.5264 21.2963C46.1168 20.4944 45.9122 19.5634 45.9122 18.5033C45.9122 17.4432 46.1168 16.519 46.5264 15.7307C46.936 14.9289 47.5028 14.3105 48.2264 13.8755C48.9502 13.427 49.7898 13.2028 50.7456 13.2028C51.715 13.2028 52.5342 13.4542 53.2034 13.9571C53.8862 14.4464 54.3775 15.0716 54.678 15.8327L57.1766 14.6706C56.9173 13.9503 56.4871 13.2911 55.8864 12.6931C55.2856 12.0815 54.5484 11.5922 53.6743 11.2252C52.8141 10.8583 51.838 10.6748 50.7456 10.6748C49.6534 10.6748 48.6429 10.8719 47.7145 11.266C46.786 11.6466 45.9802 12.1902 45.2977 12.897C44.6148 13.5901 44.0823 14.4192 43.7 15.3842C43.3178 16.3355 43.1265 17.3753 43.1265 18.5033C43.1265 19.6314 43.3178 20.6779 43.7 21.6429C44.0823 22.5943 44.6148 23.4233 45.2977 24.1302C45.9802 24.8368 46.786 25.3874 47.7145 25.7815C48.6429 26.162 49.6534 26.3522 50.7456 26.3522Z" fill="#18181B"/>
<path d="M59.2129 26.1076H61.8959V10.6748H59.2129V26.1076Z" fill="#18181B"/>
<path d="M67.7526 26.3526C69.1999 26.3526 70.3604 25.8771 71.2343 24.9257V26.108H73.774V18.728C73.774 17.9533 73.576 17.2669 73.1801 16.6689C72.784 16.0709 72.238 15.6088 71.5415 15.2826C70.8589 14.9428 70.0601 14.7729 69.1453 14.7729C68.0256 14.7729 67.0288 15.038 66.155 15.568C65.2811 16.0981 64.6803 16.798 64.3527 17.6679L66.5442 18.728C66.7489 18.2251 67.0698 17.8242 67.5067 17.5252C67.9436 17.2126 68.4558 17.0563 69.0427 17.0563C69.6572 17.0563 70.1488 17.2194 70.5174 17.5456C70.8997 17.8582 71.0909 18.2523 71.0909 18.728V19.0949L67.773 19.625C66.4622 19.8425 65.4928 20.257 64.8646 20.8686C64.2366 21.4802 63.9225 22.2481 63.9225 23.1723C63.9225 24.1508 64.2707 24.9257 64.9672 25.4963C65.6634 26.0672 66.5919 26.3526 67.7526 26.3526ZM66.7079 23.0704C66.7079 22.2958 67.2337 21.8064 68.2849 21.6025L71.0909 21.1336V21.5821C71.0909 22.3432 70.8247 22.9888 70.2921 23.5189C69.7732 24.049 69.0907 24.314 68.2441 24.314C67.7936 24.314 67.4247 24.2052 67.1381 23.9879C66.8514 23.7567 66.7079 23.4509 66.7079 23.0704Z" fill="#18181B"/>
<path d="M76.2537 26.1078H78.9368V19.9306C78.9368 19.0879 79.169 18.4355 79.6333 17.9734C80.1112 17.4978 80.7254 17.2599 81.4765 17.2599H82.4391V14.895H81.7838C81.101 14.895 80.5002 15.0174 79.9813 15.262C79.4626 15.5066 79.0597 15.9484 78.7729 16.5871V15.0174H76.2537V26.1078Z" fill="#18181B"/>
<path d="M83.9142 13.7736H86.5973V10.9194H83.9142V13.7736ZM83.9142 26.1076H86.5973V15.0172H83.9142V26.1076Z" fill="#18181B"/>
<path d="M94.1538 26.23C94.6044 26.23 95.0483 26.1959 95.4852 26.1279V23.8243C95.2256 23.8651 94.9867 23.8854 94.7683 23.8854C94.1129 23.8854 93.635 23.7361 93.3346 23.4369C93.0341 23.138 92.8841 22.7098 92.8841 22.1525V17.4025H95.4442V15.0172H92.8841V12.4893H90.201V13.3455C90.201 13.8892 90.0507 14.3037 89.7504 14.5891C89.4501 14.8745 89.0266 15.0172 88.4806 15.0172H88.2757V17.4025H90.201V22.2954C90.201 23.5321 90.5423 24.4971 91.2251 25.1901C91.9213 25.8834 92.8977 26.23 94.1538 26.23Z" fill="#18181B"/>
<path d="M98.8869 30.6135C99.9381 30.6135 100.812 30.3144 101.508 29.7165C102.218 29.132 102.785 28.303 103.208 27.2293L108.062 15.0176H105.154L102.287 22.6627L99.3988 15.0176H96.511L100.914 26.108L100.669 26.6992C100.45 27.1613 100.198 27.5351 99.9108 27.8204C99.6378 28.106 99.1939 28.2486 98.5796 28.2486C98.3611 28.2486 98.129 28.2281 97.8832 28.1876C97.6375 28.1604 97.4189 28.1196 97.2279 28.0652V30.3077C97.4599 30.4165 97.7192 30.4911 98.0061 30.5319C98.2928 30.5863 98.5863 30.6135 98.8869 30.6135Z" fill="#18181B"/>
<path d="M115.639 26.3521C116.813 26.3521 117.851 26.1076 118.752 25.6183C119.667 25.129 120.384 24.4563 120.903 23.6001C121.422 22.7438 121.681 21.772 121.681 20.6847V10.9194H118.895V20.542C118.895 21.1808 118.752 21.7516 118.466 22.2545C118.192 22.7438 117.81 23.131 117.318 23.4166C116.841 23.6883 116.281 23.8243 115.639 23.8243C115.011 23.8243 114.451 23.6883 113.96 23.4166C113.468 23.131 113.079 22.7438 112.792 22.2545C112.519 21.7516 112.383 21.1808 112.383 20.542V10.9194H109.597V20.6847C109.597 21.772 109.857 22.7438 110.376 23.6001C110.894 24.4563 111.604 25.129 112.505 25.6183C113.42 26.1076 114.465 26.3521 115.639 26.3521Z" fill="#18181B"/>
<path d="M124.462 26.1076H127.247V10.9194H124.462V26.1076Z" fill="#18181B"/>
</g>
<defs>
<clipPath id="clip0_1_216">
<rect width="126.63" height="34.965" fill="white" transform="translate(0.640625 0.5)"/>
</clipPath>
</defs>
</svg>
