<svg width="208" height="73" viewBox="0 0 208 73" fill="none" xmlns="http://www.w3.org/2000/svg">
<path d="M57.066 25.6445C48.5019 25.6445 46.0564 32.2759 46.0564 36.8875C46.0564 41.6509 48.5046 48.2822 57.066 48.2822C65.6276 48.2822 68.0757 41.6482 68.0757 36.8849C68.0757 32.2732 65.6302 25.6445 57.066 25.6445ZM57.066 44.8495C50.7951 44.8495 49.8393 38.9047 49.8393 36.8849C49.8393 34.8652 50.7951 29.0719 57.066 29.0719C63.337 29.0719 64.2527 34.8652 64.2527 36.8849C64.2527 38.9047 63.3344 44.8495 57.066 44.8495Z" fill="#8C7343"/>
<path d="M78.2845 40.8097L72.091 25.873H68.0759L78.1322 48.3165H78.4368L88.4906 25.873H84.4383L78.2845 40.8097Z" fill="#8C7343"/>
<path d="M90.7868 48.1277H105.657V44.7348H94.5694V38.8298H103.249V35.437H94.5694V29.226H105.657V25.873H90.7868V48.1277Z" fill="#8C7343"/>
<path d="M123.687 39.4392L109.466 25.5669L109.314 25.6442V48.1276H113.137V34.5614L127.28 48.4708L127.51 48.3937V25.873H123.687V39.4392Z" fill="#8C7343"/>
<path d="M140.033 25.873H131.661V48.1277H135.447V40.0487H140.493C144.048 40.0487 147.872 37.2279 147.872 32.885C147.872 29.9871 146.038 25.873 140.033 25.873ZM140.341 36.6185H135.447V29.186H140.225C143.4 29.186 144.126 31.6263 144.126 32.8823C144.126 34.0665 143.397 36.6185 140.341 36.6185Z" fill="#8C7343"/>
<path d="M154.813 25.873H150.99V48.1277H154.813V25.873Z" fill="#8C7343"/>
<path d="M169.383 28.8826C171.677 28.8826 174.01 30.2557 175.347 31.7032L177.833 29.3031C175.692 26.9772 173.169 25.4551 169.383 25.4551C160.857 25.4551 158.334 32.3154 158.334 36.8871C158.334 41.6504 160.857 48.4707 169.383 48.4707C173.055 48.4707 175.614 47.1749 177.755 45.0407L175.537 42.2971C174.084 43.6702 171.866 44.9635 169.38 44.9635C163.109 44.849 162.154 38.9415 162.154 36.8844C162.157 34.8647 163.112 28.8826 169.383 28.8826Z" fill="#8C7343"/>
<path d="M187.585 36.6185L197.869 25.9874L197.829 25.873H193.242L184.756 34.7132V25.873H180.97V48.1277H184.756V38.4094L193.93 48.1277H198.555L198.595 48.0133L187.585 36.6185Z" fill="#8C7343"/>
<path d="M51.9162 23.2493C53.1281 23.2493 54.116 22.2647 54.116 21.0565C54.116 19.8484 53.1281 18.8638 51.9162 18.8638C50.7042 18.8638 49.7163 19.8484 49.7163 21.0565C49.7163 22.2647 50.7042 23.2493 51.9162 23.2493Z" fill="#8C7343"/>
<path d="M61.0465 23.2493C62.2585 23.2493 63.2464 22.2647 63.2464 21.0565C63.2464 19.8484 62.2585 18.8638 61.0465 18.8638C59.8346 18.8638 58.8467 19.8484 58.8467 21.0565C58.8467 22.2647 59.8346 23.2493 61.0465 23.2493Z" fill="#8C7343"/>
<path d="M36.243 21.2214L27.5692 39.9315L18.8981 21.2214H18.6313L9.40762 48.0904H10.6837C10.6837 48.0904 13.6444 48.1463 14.52 45.4667L19.2347 31.2059L27.4171 48.4336H27.724L35.9065 31.2059L40.6211 45.4667C41.4967 48.149 44.4573 48.0904 44.4573 48.0904H45.7334L36.5098 21.2214H36.243Z" fill="#8C7343"/>
<path d="M120.745 17.328C120.087 17.7698 119.633 18.0706 119.2 18.3606C119.197 18.3632 119.192 18.3659 119.189 18.3686C120.06 19.0391 121.672 19.7417 123.213 19.7817C123.707 19.2414 123.955 18.962 124.379 18.491C127.543 14.9916 129.422 15.1274 130.287 15.0635C128.987 14.4195 125.489 14.1534 120.745 17.328Z" fill="#8C7343"/>
<path d="M117.988 19.1666C115.918 18.363 113.633 16.8541 110.854 14.3794C106.18 10.2201 101.754 10.5368 99.6394 11.0397C99.8712 11.093 100.184 11.1648 100.563 11.2792C102.197 11.7742 105.088 13.0621 108.34 16.9792C110.037 19.023 111.605 20.3482 113.012 21.1838C113.014 21.1838 113.017 21.1838 113.02 21.1865C113.02 21.1865 113.017 21.1865 113.017 21.1838C113.054 21.2077 113.094 21.229 113.132 21.2529C117.982 24.1216 121.669 21.2716 122.814 20.1885L122.895 20.1113C122.898 20.1113 122.898 20.1113 122.9 20.1113C122.945 20.0661 123.114 19.8931 123.18 19.8239L123.191 19.8132C121.496 20.0341 119.827 19.8825 117.988 19.1666Z" fill="#8C7343"/>
<path d="M27.1898 63.2927V53.915H28.7969V57.7418H33.4075V53.915H35.0146V63.2927H33.4075V59.0935H28.7969V63.2927H27.1898Z" fill="#8C7343"/>
<path d="M38.3007 58.6039C38.3007 55.6633 40.3991 53.585 43.4158 53.585C46.4458 53.585 48.5442 55.6633 48.5442 58.6039C48.5442 61.5576 46.4458 63.6226 43.4158 63.6226C40.3991 63.6226 38.3007 61.5576 38.3007 58.6039ZM39.8945 58.6039C39.8945 60.722 41.3548 62.2336 43.4158 62.2468C45.4874 62.2468 46.9503 60.7247 46.9503 58.6039C46.9503 56.4857 45.49 54.9741 43.4158 54.9741C41.3548 54.9741 39.8945 56.4857 39.8945 58.6039Z" fill="#8C7343"/>
<path d="M53.4351 55.2803H50.4185V53.915H58.0324V55.2803H55.029V63.2927H53.4351V55.2803Z" fill="#8C7343"/>
<path d="M62.3785 61.9409H67.4802V63.2927H60.8381V53.915H67.3493V55.2669H62.3811V57.8482H66.8181V59.0669H62.3811V61.9409H62.3785Z" fill="#8C7343"/>
<path d="M70.7637 63.2927V53.915H72.3576V61.9143H76.7943V63.2927H70.7637Z" fill="#8C7343"/>
<path d="M83.0953 63.6229C80.7434 63.6229 79.0422 62.1913 79.0422 60.2327H80.5562C80.5562 61.4382 81.6185 62.311 83.1354 62.311C84.4777 62.311 85.26 61.6218 85.26 60.6824C85.26 59.61 84.064 59.4504 82.735 59.2641C80.967 59.0246 79.1596 58.7079 79.1596 56.5497C79.1596 54.8147 80.6334 53.5828 82.8278 53.5828C85.0334 53.5828 86.6268 54.9345 86.6268 56.7999H85.153C85.153 55.6876 84.1843 54.892 82.8412 54.892C81.565 54.892 80.7434 55.528 80.7434 56.3875C80.7434 57.4599 81.8324 57.6328 83.1881 57.8191C84.9428 58.0586 86.843 58.3752 86.843 60.4802C86.843 62.3137 85.3937 63.6229 83.0953 63.6229Z" fill="#8C7343"/>
<path d="M99.1209 60.6163C99.5191 60.1 99.8392 59.4906 100.077 58.7881H101.486C101.169 59.7939 100.662 60.6961 100.05 61.4492C100.223 61.6089 101.924 63.1442 102.082 63.2906H100.141L99.1053 62.3645C98.176 63.1603 97.0602 63.6232 95.9311 63.6232C94.0702 63.6232 92.7435 62.5109 92.7435 60.8956C92.7435 59.4534 93.6052 58.7376 94.6704 58.2479C94.1928 57.6917 93.8191 56.9892 93.8325 56.1829C93.8325 54.7406 95.0285 53.6789 96.5684 53.6655C98.069 53.6655 99.265 54.6714 99.4522 56.0632L98.0556 56.3293C97.962 55.5203 97.3774 54.9374 96.5952 54.9374C95.8642 54.9374 95.2662 55.4537 95.2662 56.2495C95.2662 56.819 95.5834 57.4017 96.2082 57.9711L99.1209 60.6163ZM95.5998 59.1606C94.7618 59.4773 94.27 59.9563 94.27 60.8292C94.27 61.702 95.0686 62.3247 96.171 62.3247C96.8894 62.3247 97.581 62.0346 98.1656 61.529C97.9516 61.3321 95.813 59.3603 95.5998 59.1606Z" fill="#8C7343"/>
<path d="M109.724 63.2927H108.131V53.915H112.461C114.519 53.915 115.996 55.1737 115.996 56.9621C115.996 58.2208 115.08 59.333 113.804 59.663L116.155 63.2927H114.322L112.25 59.9025H109.724V63.2927ZM109.724 55.2271V58.6305H112.277C113.5 58.6305 114.401 57.928 114.401 56.9621C114.401 55.863 113.513 55.2271 112.277 55.2271H109.724Z" fill="#8C7343"/>
<path d="M120.98 61.9409H126.081V63.2927H119.44V53.915H125.951V55.2669H120.982V57.8482H125.42V59.0669H120.982V61.9409H120.98Z" fill="#8C7343"/>
<path d="M133.007 63.6229C130.655 63.6229 128.955 62.1913 128.955 60.2327H130.468C130.468 61.4382 131.531 62.311 133.047 62.311C134.39 62.311 135.173 61.6218 135.173 60.6824C135.173 59.61 133.977 59.4504 132.647 59.2641C130.88 59.0246 129.072 58.7079 129.072 56.5497C129.072 54.8147 130.546 53.5828 132.74 53.5828C134.945 53.5828 136.539 54.9345 136.539 56.7999H135.066C135.066 55.6876 134.096 54.892 132.754 54.892C131.478 54.892 130.655 55.528 130.655 56.3875C130.655 57.4599 131.744 57.6328 133.101 57.8191C134.855 58.0586 136.756 58.3752 136.756 60.4802C136.756 62.3137 135.306 63.6229 133.007 63.6229Z" fill="#8C7343"/>
<path d="M139.665 58.6039C139.665 55.6633 141.763 53.585 144.779 53.585C147.809 53.585 149.909 55.6633 149.909 58.6039C149.909 61.5576 147.809 63.6226 144.779 63.6226C141.765 63.6226 139.665 61.5576 139.665 58.6039ZM141.258 58.6039C141.258 60.722 142.718 62.2336 144.779 62.2468C146.851 62.2468 148.314 60.7247 148.314 58.6039C148.314 56.4857 146.854 54.9741 144.779 54.9741C142.721 54.9741 141.258 56.4857 141.258 58.6039Z" fill="#8C7343"/>
<path d="M154.801 63.2927H153.208V53.915H157.538C159.597 53.915 161.072 55.1737 161.072 56.9621C161.072 58.2208 160.157 59.333 158.881 59.663L161.233 63.2927H159.399L157.327 59.9025H154.801V63.2927ZM154.801 55.2271V58.6305H157.354C158.576 58.6305 159.48 57.928 159.48 56.9621C159.48 55.863 158.59 55.2271 157.354 55.2271H154.801Z" fill="#8C7343"/>
<path d="M166.174 55.2803H163.158V53.915H170.771V55.2803H167.768V63.2927H166.174V55.2803Z" fill="#8C7343"/>
<path d="M177.219 63.6229C174.867 63.6229 173.166 62.1913 173.166 60.2327H174.68C174.68 61.4382 175.742 62.311 177.259 62.311C178.602 62.311 179.384 61.6218 179.384 60.6824C179.384 59.61 178.188 59.4504 176.858 59.2641C175.091 59.0246 173.283 58.7079 173.283 56.5497C173.283 54.8147 174.757 53.5828 176.952 53.5828C179.156 53.5828 180.751 54.9345 180.751 56.7999H179.277C179.277 55.6876 178.308 54.892 176.965 54.892C175.689 54.892 174.867 55.528 174.867 56.3875C174.867 57.4599 175.956 57.6328 177.313 57.8191C179.066 58.0586 180.967 58.3752 180.967 60.4802C180.964 62.3137 179.517 63.6229 177.219 63.6229Z" fill="#8C7343"/>
</svg>
