<svg width="1352" height="49" viewBox="0 0 1352 49" fill="none" xmlns="http://www.w3.org/2000/svg">
<path d="M75.6987 12.0983H80.6649V30.0088C80.6649 31.9721 80.2009 33.6989 79.2728 35.1892C78.3536 36.6796 77.0596 37.8441 75.3908 38.683C73.722 39.5129 71.7721 39.9279 69.5411 39.9279C67.3012 39.9279 65.3468 39.5129 63.678 38.683C62.0092 37.8441 60.7152 36.6796 59.796 35.1892C58.8769 33.6989 58.4173 31.9721 58.4173 30.0088V12.0983H63.3835V29.5939C63.3835 30.7361 63.6334 31.7535 64.1331 32.6459C64.6418 33.5383 65.3557 34.2388 66.2749 34.7475C67.1941 35.2472 68.2828 35.4971 69.5411 35.4971C70.7994 35.4971 71.8881 35.2472 72.8073 34.7475C73.7354 34.2388 74.4493 33.5383 74.9491 32.6459C75.4488 31.7535 75.6987 30.7361 75.6987 29.5939V12.0983ZM90.6945 27.4655V39.5129H85.8487V18.9519H90.4803V22.4457H90.7212C91.1942 21.2945 91.9483 20.3798 92.9835 19.7015C94.0276 19.0233 95.3171 18.6842 96.8521 18.6842C98.271 18.6842 99.507 18.9876 100.56 19.5945C101.622 20.2013 102.443 21.0803 103.023 22.2315C103.612 23.3827 103.902 24.7793 103.893 26.4214V39.5129H99.0474V27.171C99.0474 25.7967 98.6904 24.7213 97.9765 23.9449C97.2715 23.1685 96.2943 22.7803 95.0449 22.7803C94.1971 22.7803 93.4431 22.9677 92.7827 23.3426C92.1312 23.7084 91.6181 24.2394 91.2433 24.9355C90.8774 25.6316 90.6945 26.4749 90.6945 27.4655ZM125.07 24.3867L120.652 24.8686C120.528 24.4224 120.309 24.0029 119.997 23.6103C119.693 23.2176 119.283 22.9008 118.765 22.6599C118.247 22.4189 117.614 22.2984 116.864 22.2984C115.856 22.2984 115.008 22.5171 114.321 22.9544C113.643 23.3916 113.308 23.9583 113.317 24.6544C113.308 25.2523 113.527 25.7387 113.973 26.1135C114.428 26.4883 115.178 26.7962 116.222 27.0371L119.729 27.7867C121.674 28.2062 123.12 28.871 124.066 29.7813C125.021 30.6915 125.503 31.8829 125.512 33.3553C125.503 34.6493 125.123 35.7916 124.374 36.7822C123.633 37.7638 122.602 38.5313 121.282 39.0846C119.961 39.6379 118.444 39.9145 116.73 39.9145C114.214 39.9145 112.188 39.388 110.653 38.335C109.118 37.273 108.203 35.7961 107.909 33.9042L112.634 33.449C112.848 34.3771 113.304 35.0777 114 35.5507C114.696 36.0236 115.601 36.2601 116.717 36.2601C117.868 36.2601 118.792 36.0236 119.488 35.5507C120.193 35.0777 120.545 34.4932 120.545 33.7971C120.545 33.2081 120.318 32.7217 119.863 32.338C119.417 31.9543 118.72 31.6598 117.774 31.4545L114.267 30.7183C112.295 30.3078 110.836 29.6162 109.89 28.6434C108.944 27.6618 108.476 26.4214 108.485 24.9221C108.476 23.6549 108.819 22.5572 109.515 21.6291C110.22 20.6921 111.197 19.9693 112.447 19.4606C113.705 18.943 115.155 18.6842 116.797 18.6842C119.207 18.6842 121.103 19.1973 122.486 20.2236C123.879 21.2499 124.74 22.6376 125.07 24.3867ZM129.507 47.2233V18.9519H134.273V22.352H134.554C134.804 21.8522 135.156 21.3213 135.611 20.759C136.067 20.1879 136.682 19.7015 137.459 19.3C138.235 18.8895 139.226 18.6842 140.43 18.6842C142.019 18.6842 143.451 19.0902 144.727 19.9023C146.012 20.7055 147.03 21.8969 147.779 23.4764C148.538 25.0471 148.917 26.9746 148.917 29.2592C148.917 31.517 148.547 33.4357 147.806 35.0152C147.065 36.5948 146.057 37.7995 144.781 38.6295C143.505 39.4594 142.059 39.8744 140.444 39.8744C139.266 39.8744 138.289 39.678 137.512 39.2854C136.736 38.8927 136.111 38.4197 135.638 37.8665C135.174 37.3042 134.813 36.7733 134.554 36.2735H134.353V47.2233H129.507ZM134.259 29.2324C134.259 30.5621 134.447 31.7267 134.822 32.7262C135.205 33.7257 135.754 34.5065 136.468 35.0688C137.191 35.6221 138.066 35.8987 139.092 35.8987C140.163 35.8987 141.06 35.6131 141.782 35.042C142.505 34.4619 143.05 33.6721 143.416 32.6727C143.79 31.6642 143.978 30.5175 143.978 29.2324C143.978 27.9563 143.795 26.8229 143.429 25.8324C143.063 24.8418 142.519 24.0654 141.796 23.5032C141.073 22.941 140.172 22.6599 139.092 22.6599C138.057 22.6599 137.178 22.9321 136.455 23.4764C135.732 24.0208 135.183 24.7838 134.808 25.7654C134.442 26.7471 134.259 27.9027 134.259 29.2324ZM157.913 12.0983V39.5129H153.067V12.0983H157.913ZM168.812 39.9279C167.509 39.9279 166.336 39.6959 165.292 39.2318C164.257 38.7589 163.436 38.0628 162.829 37.1436C162.231 36.2244 161.932 35.0911 161.932 33.7435C161.932 32.5834 162.146 31.6241 162.574 30.8655C163.003 30.107 163.587 29.5002 164.328 29.045C165.069 28.5899 165.903 28.2463 166.831 28.0143C167.768 27.7734 168.736 27.5993 169.736 27.4922C170.941 27.3673 171.918 27.2558 172.667 27.1576C173.417 27.0505 173.961 26.8899 174.301 26.6757C174.649 26.4526 174.823 26.109 174.823 25.645V25.5646C174.823 24.5562 174.524 23.7754 173.926 23.2221C173.328 22.6688 172.467 22.3921 171.342 22.3921C170.155 22.3921 169.214 22.6509 168.518 23.1685C167.831 23.6861 167.367 24.2974 167.126 25.0024L162.601 24.3599C162.958 23.1105 163.547 22.0664 164.368 21.2276C165.189 20.3798 166.193 19.7462 167.38 19.3267C168.567 18.8984 169.879 18.6842 171.315 18.6842C172.306 18.6842 173.292 18.8002 174.274 19.0322C175.255 19.2643 176.152 19.648 176.964 20.1834C177.776 20.71 178.428 21.4283 178.919 22.3386C179.418 23.2489 179.668 24.3867 179.668 25.7521V39.5129H175.01V36.6885H174.849C174.555 37.2596 174.14 37.7951 173.604 38.2948C173.078 38.7856 172.413 39.1827 171.61 39.4862C170.816 39.7807 169.883 39.9279 168.812 39.9279ZM170.071 36.3672C171.043 36.3672 171.887 36.1753 172.601 35.7916C173.314 35.399 173.863 34.8814 174.247 34.2388C174.64 33.5963 174.836 32.8958 174.836 32.1372V29.7143C174.684 29.8393 174.425 29.9553 174.06 30.0624C173.703 30.1695 173.301 30.2632 172.855 30.3435C172.409 30.4238 171.967 30.4952 171.53 30.5577C171.092 30.6201 170.713 30.6737 170.392 30.7183C169.669 30.8165 169.022 30.9771 168.451 31.2002C167.88 31.4233 167.429 31.7356 167.099 32.1372C166.769 32.5299 166.604 33.0385 166.604 33.6632C166.604 34.5556 166.929 35.2294 167.581 35.6845C168.232 36.1396 169.062 36.3672 170.071 36.3672ZM200.792 24.3867L196.374 24.8686C196.249 24.4224 196.031 24.0029 195.718 23.6103C195.415 23.2176 195.004 22.9008 194.487 22.6599C193.969 22.4189 193.336 22.2984 192.586 22.2984C191.578 22.2984 190.73 22.5171 190.043 22.9544C189.364 23.3916 189.03 23.9583 189.039 24.6544C189.03 25.2523 189.248 25.7387 189.695 26.1135C190.15 26.4883 190.899 26.7962 191.943 27.0371L195.451 27.7867C197.396 28.2062 198.842 28.871 199.788 29.7813C200.743 30.6915 201.224 31.8829 201.233 33.3553C201.224 34.6493 200.845 35.7916 200.096 36.7822C199.355 37.7638 198.324 38.5313 197.003 39.0846C195.683 39.6379 194.165 39.9145 192.452 39.9145C189.935 39.9145 187.91 39.388 186.375 38.335C184.84 37.273 183.925 35.7961 183.631 33.9042L188.356 33.449C188.57 34.3771 189.025 35.0777 189.721 35.5507C190.417 36.0236 191.323 36.2601 192.439 36.2601C193.59 36.2601 194.514 36.0236 195.21 35.5507C195.915 35.0777 196.267 34.4932 196.267 33.7971C196.267 33.2081 196.04 32.7217 195.584 32.338C195.138 31.9543 194.442 31.6598 193.496 31.4545L189.989 30.7183C188.017 30.3078 186.558 29.6162 185.612 28.6434C184.666 27.6618 184.197 26.4214 184.206 24.9221C184.197 23.6549 184.541 22.5572 185.237 21.6291C185.942 20.6921 186.919 19.9693 188.169 19.4606C189.427 18.943 190.877 18.6842 192.519 18.6842C194.928 18.6842 196.825 19.1973 198.208 20.2236C199.6 21.2499 200.461 22.6376 200.792 24.3867ZM210.075 27.4655V39.5129H205.229V12.0983H209.968V22.4457H210.209C210.691 21.2856 211.436 20.3708 212.444 19.7015C213.462 19.0233 214.755 18.6842 216.326 18.6842C217.754 18.6842 218.999 18.9832 220.061 19.5811C221.123 20.179 221.944 21.0535 222.524 22.2047C223.113 23.3559 223.407 24.7615 223.407 26.4214V39.5129H218.562V27.171C218.562 25.7877 218.205 24.7124 217.491 23.9449C216.786 23.1685 215.795 22.7803 214.519 22.7803C213.662 22.7803 212.895 22.9677 212.217 23.3426C211.547 23.7084 211.021 24.2394 210.637 24.9355C210.262 25.6316 210.075 26.4749 210.075 27.4655Z" fill="#A6A6A6"/>
<rect x="13.8203" width="15.0781" height="11.3086" fill="#A6A6A6"/>
<rect y="28.8997" width="42.7212" height="11.3086" fill="#A6A6A6"/>
<rect x="30.1562" y="17.5911" width="12.5651" height="22.6171" fill="#A6A6A6"/>
<rect y="17.5911" width="12.5651" height="22.6171" fill="#A6A6A6"/>
<path d="M374.542 10.8419V38.2566H370.124L357.207 19.583H356.979V38.2566H352.013V10.8419H356.457L369.361 29.5289H369.602V10.8419H374.542ZM388.707 38.6582C386.699 38.6582 384.959 38.2164 383.487 37.333C382.014 36.4495 380.872 35.2135 380.06 33.625C379.257 32.0365 378.855 30.1803 378.855 28.0564C378.855 25.9325 379.257 24.0718 380.06 22.4744C380.872 20.877 382.014 19.6366 383.487 18.7531C384.959 17.8696 386.699 17.4279 388.707 17.4279C390.715 17.4279 392.455 17.8696 393.928 18.7531C395.4 19.6366 396.538 20.877 397.341 22.4744C398.153 24.0718 398.56 25.9325 398.56 28.0564C398.56 30.1803 398.153 32.0365 397.341 33.625C396.538 35.2135 395.4 36.4495 393.928 37.333C392.455 38.2164 390.715 38.6582 388.707 38.6582ZM388.734 34.7762C389.823 34.7762 390.733 34.4773 391.465 33.8793C392.197 33.2725 392.741 32.4604 393.098 31.4431C393.464 30.4257 393.647 29.2924 393.647 28.043C393.647 26.7847 393.464 25.6469 393.098 24.6296C392.741 23.6033 392.197 22.7867 391.465 22.1799C390.733 21.5731 389.823 21.2697 388.734 21.2697C387.619 21.2697 386.691 21.5731 385.95 22.1799C385.218 22.7867 384.669 23.6033 384.303 24.6296C383.946 25.6469 383.768 26.7847 383.768 28.043C383.768 29.2924 383.946 30.4257 384.303 31.4431C384.669 32.4604 385.218 33.2725 385.95 33.8793C386.691 34.4773 387.619 34.7762 388.734 34.7762ZM412.94 17.6956V21.4437H401.12V17.6956H412.94ZM404.038 12.7695H408.884V32.0722C408.884 32.7237 408.982 33.2234 409.178 33.5715C409.383 33.9106 409.651 34.1426 409.981 34.2675C410.311 34.3925 410.677 34.4549 411.079 34.4549C411.382 34.4549 411.659 34.4326 411.909 34.388C412.168 34.3434 412.364 34.3032 412.498 34.2675L413.314 38.0558C413.056 38.145 412.685 38.2432 412.203 38.3503C411.73 38.4574 411.15 38.5199 410.463 38.5377C409.249 38.5734 408.156 38.3905 407.184 37.9889C406.211 37.5784 405.439 36.9448 404.868 36.088C404.306 35.2313 404.029 34.1605 404.038 32.8754V12.7695ZM416.992 38.2566V17.6956H421.838V38.2566H416.992ZM419.428 14.7774C418.661 14.7774 418.001 14.5231 417.447 14.0144C416.894 13.4968 416.617 12.8766 416.617 12.1537C416.617 11.422 416.894 10.8017 417.447 10.2931C418.001 9.77548 418.661 9.51669 419.428 9.51669C420.205 9.51669 420.865 9.77548 421.41 10.2931C421.963 10.8017 422.239 11.422 422.239 12.1537C422.239 12.8766 421.963 13.4968 421.41 14.0144C420.865 14.5231 420.205 14.7774 419.428 14.7774ZM435.79 38.6582C433.782 38.6582 432.041 38.2164 430.569 37.333C429.097 36.4495 427.954 35.2135 427.142 33.625C426.339 32.0365 425.937 30.1803 425.937 28.0564C425.937 25.9325 426.339 24.0718 427.142 22.4744C427.954 20.877 429.097 19.6366 430.569 18.7531C432.041 17.8696 433.782 17.4279 435.79 17.4279C437.797 17.4279 439.538 17.8696 441.01 18.7531C442.483 19.6366 443.62 20.877 444.424 22.4744C445.236 24.0718 445.642 25.9325 445.642 28.0564C445.642 30.1803 445.236 32.0365 444.424 33.625C443.62 35.2135 442.483 36.4495 441.01 37.333C439.538 38.2164 437.797 38.6582 435.79 38.6582ZM435.816 34.7762C436.905 34.7762 437.815 34.4773 438.547 33.8793C439.279 33.2725 439.823 32.4604 440.18 31.4431C440.546 30.4257 440.729 29.2924 440.729 28.043C440.729 26.7847 440.546 25.6469 440.18 24.6296C439.823 23.6033 439.279 22.7867 438.547 22.1799C437.815 21.5731 436.905 21.2697 435.816 21.2697C434.701 21.2697 433.773 21.5731 433.032 22.1799C432.3 22.7867 431.751 23.6033 431.386 24.6296C431.029 25.6469 430.85 26.7847 430.85 28.043C430.85 29.2924 431.029 30.4257 431.386 31.4431C431.751 32.4604 432.3 33.2725 433.032 33.8793C433.773 34.4773 434.701 34.7762 435.816 34.7762ZM454.6 26.2091V38.2566H449.755V17.6956H454.386V21.1893H454.627C455.1 20.0381 455.854 19.1234 456.889 18.4452C457.933 17.767 459.223 17.4279 460.758 17.4279C462.177 17.4279 463.413 17.7313 464.466 18.3381C465.528 18.9449 466.349 19.824 466.929 20.9752C467.518 22.1264 467.808 23.523 467.799 25.165V38.2566H462.953V25.9146C462.953 24.5403 462.596 23.465 461.882 22.6886C461.177 21.9122 460.2 21.524 458.951 21.524C458.103 21.524 457.349 21.7114 456.689 22.0862C456.037 22.4521 455.524 22.9831 455.149 23.6792C454.783 24.3752 454.6 25.2186 454.6 26.2091Z" fill="#A6A6A6"/>
<path d="M324.666 19.5453V37.8218H321.721L313.109 25.3727H312.957V37.8218H309.646V19.5453H312.609L321.212 32.0033H321.373V19.5453H324.666Z" fill="#A6A6A6"/>
<rect x="300.307" y="12.5651" width="35.1822" height="32.6692" stroke="#A6A6A6" stroke-width="2.51301"/>
<path d="M333.399 10.0518L326.219 3.76953H292.34L299.52 10.0518H333.399Z" stroke="#A6A6A6" stroke-width="2.51301"/>
<path d="M299.051 11.3087L288.999 2.51318V37.6954L299.051 46.4909V11.3087Z" fill="#A6A6A6"/>
<path d="M591.946 10.8419V38.2566H586.979V10.8419H591.946ZM619.852 10.8419V38.2566H615.435L602.517 19.583H602.29V38.2566H597.323V10.8419H601.768L614.672 29.5289H614.913V10.8419H619.852ZM624.059 15.005V10.8419H645.932V15.005H637.458V38.2566H632.532V15.005H624.059ZM650.148 38.2566V10.8419H667.979V15.005H655.115V22.4476H667.055V26.6107H655.115V34.0935H668.086V38.2566H650.148ZM673.045 38.2566V10.8419H683.326C685.432 10.8419 687.199 11.2078 688.627 11.9396C690.063 12.6713 691.148 13.6976 691.879 15.0184C692.62 16.3302 692.99 17.8607 692.99 19.6098C692.99 21.3678 692.616 22.8938 691.866 24.1878C691.125 25.4729 690.032 26.4679 688.586 27.1729C687.141 27.869 685.365 28.217 683.259 28.217H675.937V24.0941H682.589C683.821 24.0941 684.829 23.9246 685.615 23.5855C686.4 23.2374 686.98 22.7332 687.355 22.0728C687.739 21.4035 687.93 20.5825 687.93 19.6098C687.93 18.6371 687.739 17.8071 687.355 17.12C686.971 16.4239 686.387 15.8974 685.601 15.5404C684.816 15.1745 683.803 14.9916 682.563 14.9916H678.011V38.2566H673.045ZM687.208 25.8343L693.994 38.2566H688.453L681.786 25.8343H687.208ZM721.028 20.0917H716.021C715.878 19.2707 715.615 18.5434 715.231 17.9098C714.848 17.2672 714.37 16.7229 713.799 16.2767C713.228 15.8305 712.576 15.4958 711.845 15.2727C711.122 15.0407 710.341 14.9247 709.502 14.9247C708.012 14.9247 706.691 15.2995 705.54 16.0491C704.389 16.7898 703.487 17.8785 702.836 19.3153C702.184 20.7431 701.859 22.4878 701.859 24.5492C701.859 26.6464 702.184 28.4134 702.836 29.8501C703.496 31.278 704.398 32.3578 705.54 33.0896C706.691 33.8124 708.007 34.1738 709.489 34.1738C710.31 34.1738 711.077 34.0667 711.791 33.8526C712.514 33.6295 713.161 33.3037 713.732 32.8754C714.312 32.447 714.799 31.9205 715.191 31.2958C715.593 30.6711 715.869 29.9572 716.021 29.1541L721.028 29.1808C720.84 30.4837 720.434 31.7063 719.809 32.8486C719.194 33.9909 718.386 34.9993 717.387 35.8739C716.387 36.7395 715.218 37.4177 713.879 37.9086C712.541 38.3905 711.055 38.6314 709.422 38.6314C707.012 38.6314 704.862 38.0736 702.97 36.9581C701.078 35.8426 699.588 34.2318 698.499 32.1258C697.41 30.0197 696.866 27.4942 696.866 24.5492C696.866 21.5954 697.415 19.0699 698.512 16.9727C699.61 14.8667 701.105 13.2559 702.996 12.1404C704.888 11.0248 707.03 10.4671 709.422 10.4671C710.948 10.4671 712.367 10.6813 713.679 11.1096C714.99 11.538 716.159 12.1671 717.186 12.9971C718.212 13.8181 719.055 14.8265 719.716 16.0223C720.385 17.2092 720.822 18.5657 721.028 20.0917ZM750.072 24.5492C750.072 27.5031 749.519 30.0331 748.412 32.1392C747.314 34.2363 745.815 35.8426 743.914 36.9581C742.022 38.0736 739.876 38.6314 737.476 38.6314C735.075 38.6314 732.924 38.0736 731.024 36.9581C729.132 35.8337 727.632 34.2229 726.526 32.1258C725.428 30.0197 724.879 27.4942 724.879 24.5492C724.879 21.5954 725.428 19.0699 726.526 16.9727C727.632 14.8667 729.132 13.2559 731.024 12.1404C732.924 11.0248 735.075 10.4671 737.476 10.4671C739.876 10.4671 742.022 11.0248 743.914 12.1404C745.815 13.2559 747.314 14.8667 748.412 16.9727C749.519 19.0699 750.072 21.5954 750.072 24.5492ZM745.079 24.5492C745.079 22.4699 744.753 20.7164 744.102 19.2885C743.459 17.8517 742.567 16.7675 741.425 16.0357C740.282 15.295 738.966 14.9247 737.476 14.9247C735.985 14.9247 734.669 15.295 733.527 16.0357C732.385 16.7675 731.488 17.8517 730.836 19.2885C730.194 20.7164 729.872 22.4699 729.872 24.5492C729.872 26.6286 730.194 28.3866 730.836 29.8234C731.488 31.2512 732.385 32.3355 733.527 33.0762C734.669 33.808 735.985 34.1738 737.476 34.1738C738.966 34.1738 740.282 33.808 741.425 33.0762C742.567 32.3355 743.459 31.2512 744.102 29.8234C744.753 28.3866 745.079 26.6286 745.079 24.5492ZM754.767 10.8419H760.844L768.983 30.7068H769.304L777.443 10.8419H783.52V38.2566H778.755V19.4224H778.501L770.924 38.1763H767.363L759.787 19.3822H759.533V38.2566H754.767V10.8419Z" fill="#A6A6A6"/>
<rect x="534.016" y="5.02612" width="37.6952" height="37.6952" rx="3.76952" fill="#A6A6A6"/>
<rect x="539.041" y="13.8218" width="2.51301" height="15.0781" fill="white"/>
<rect x="545.324" y="10.0522" width="2.51301" height="22.6171" fill="white"/>
<rect x="551.605" y="10.0522" width="2.51301" height="22.6171" fill="white"/>
<rect x="557.889" y="10.0522" width="2.51301" height="22.6171" fill="white"/>
<path d="M540.297 35.1824C543.857 38.0269 554.118 42.0093 566.684 35.1824" stroke="white" stroke-width="2.51301" stroke-linecap="round"/>
<rect x="564.172" y="13.8218" width="2.51301" height="15.0781" fill="white"/>
<path d="M874.527 36.6414C874.527 38.2538 873.203 39.8 870.847 40.9402C868.49 42.0803 865.294 42.7214 861.962 42.7214C858.63 42.7214 855.433 42.0803 853.077 40.9402C850.721 39.8 849.397 38.2537 849.397 36.6414H874.527ZM864.477 31.7771H849.398V26.9138H864.477V31.7771ZM878.297 31.7771H870.758V26.9138H878.297V31.7771ZM856.938 20.8337H849.398V15.9695H856.938V20.8337ZM878.297 20.8337H863.219V15.9695H878.297V20.8337ZM861.964 5.02612C865.296 5.02617 868.492 5.66624 870.849 6.8064C873.205 7.94659 874.528 9.49373 874.528 11.1062H849.398C849.398 9.49372 850.723 7.94659 853.079 6.8064C855.435 5.66636 858.632 5.02612 861.964 5.02612Z" fill="#A6A6A6"/>
<path d="M900.983 38.618C899.368 38.618 897.922 38.203 896.646 37.3731C895.37 36.5432 894.362 35.3384 893.621 33.7589C892.88 32.1793 892.51 30.2606 892.51 28.0029C892.51 25.7183 892.885 23.7907 893.634 22.2201C894.393 20.6405 895.415 19.4492 896.7 18.646C897.985 17.8339 899.417 17.4279 900.997 17.4279C902.201 17.4279 903.192 17.6331 903.968 18.0436C904.745 18.4452 905.36 18.9316 905.816 19.5027C906.271 20.0649 906.623 20.5959 906.873 21.0956H907.074V10.8419H911.933V38.2566H907.168V35.0172H906.873C906.623 35.5169 906.262 36.0479 905.789 36.6101C905.316 37.1634 904.691 37.6364 903.915 38.029C903.138 38.4217 902.161 38.618 900.983 38.618ZM902.335 34.6424C903.361 34.6424 904.236 34.3657 904.959 33.8124C905.682 33.2502 906.23 32.4693 906.605 31.4699C906.98 30.4704 907.168 29.3058 907.168 27.9761C907.168 26.6464 906.98 25.4907 906.605 24.5091C906.239 23.5274 905.695 22.7644 904.972 22.2201C904.258 21.6757 903.379 21.4035 902.335 21.4035C901.255 21.4035 900.354 21.6846 899.631 22.2468C898.908 22.8091 898.364 23.5855 897.998 24.576C897.632 25.5666 897.449 26.6999 897.449 27.9761C897.449 29.2611 897.632 30.4079 897.998 31.4163C898.373 32.4158 898.922 33.2056 899.645 33.7856C900.376 34.3568 901.273 34.6424 902.335 34.6424ZM926.199 38.6582C924.138 38.6582 922.357 38.2298 920.858 37.3731C919.368 36.5075 918.221 35.2849 917.418 33.7053C916.615 32.1168 916.213 30.2473 916.213 28.0966C916.213 25.9816 916.615 24.1254 917.418 22.528C918.23 20.9216 919.363 19.6723 920.818 18.7798C922.273 17.8785 923.982 17.4279 925.945 17.4279C927.212 17.4279 928.408 17.6331 929.532 18.0436C930.666 18.4452 931.665 19.0699 932.531 19.9177C933.405 20.7655 934.093 21.8453 934.592 23.1571C935.092 24.46 935.342 26.0128 935.342 27.8155V29.3013H918.489V26.0351H930.697C930.688 25.107 930.487 24.2815 930.095 23.5587C929.702 22.8269 929.153 22.2513 928.448 21.8319C927.752 21.4124 926.94 21.2027 926.012 21.2027C925.021 21.2027 924.151 21.4437 923.401 21.9256C922.652 22.3986 922.067 23.0232 921.648 23.7996C921.237 24.5671 921.028 25.4104 921.019 26.3296V29.1808C921.019 30.3767 921.237 31.4029 921.675 32.2596C922.112 33.1074 922.723 33.7589 923.509 34.214C924.294 34.6602 925.213 34.8833 926.266 34.8833C926.971 34.8833 927.609 34.7851 928.18 34.5888C928.751 34.3836 929.247 34.0846 929.666 33.6919C930.086 33.2993 930.402 32.8129 930.617 32.2329L935.141 32.7415C934.856 33.9374 934.311 34.9815 933.508 35.8739C932.714 36.7574 931.696 37.4445 930.456 37.9353C929.216 38.4172 927.797 38.6582 926.199 38.6582ZM955.692 23.1303L951.275 23.6122C951.15 23.166 950.931 22.7466 950.619 22.3539C950.315 21.9613 949.905 21.6445 949.387 21.4035C948.87 21.1626 948.236 21.0421 947.486 21.0421C946.478 21.0421 945.63 21.2607 944.943 21.698C944.265 22.1353 943.93 22.702 943.939 23.398C943.93 23.996 944.149 24.4823 944.595 24.8571C945.05 25.2319 945.8 25.5398 946.844 25.7808L950.351 26.5304C952.296 26.9498 953.742 27.6147 954.688 28.5249C955.643 29.4352 956.125 30.6265 956.134 32.099C956.125 33.393 955.746 34.5353 954.996 35.5258C954.255 36.5075 953.225 37.2749 951.904 37.8282C950.583 38.3815 949.066 38.6582 947.353 38.6582C944.836 38.6582 942.81 38.1317 941.275 37.0786C939.74 36.0167 938.826 34.5397 938.531 32.6478L943.256 32.1927C943.471 33.1208 943.926 33.8213 944.622 34.2943C945.318 34.7673 946.224 35.0038 947.339 35.0038C948.49 35.0038 949.414 34.7673 950.11 34.2943C950.815 33.8213 951.168 33.2368 951.168 32.5407C951.168 31.9517 950.94 31.4654 950.485 31.0817C950.039 30.6979 949.343 30.4034 948.397 30.1982L944.889 29.4619C942.917 29.0514 941.458 28.3598 940.512 27.3871C939.566 26.4055 939.098 25.165 939.107 23.6658C939.098 22.3986 939.441 21.3009 940.137 20.3728C940.842 19.4358 941.82 18.7129 943.069 18.2042C944.327 17.6867 945.777 17.4279 947.419 17.4279C949.829 17.4279 951.725 17.941 953.109 18.9673C954.501 19.9935 955.362 21.3812 955.692 23.1303ZM969.098 38.6582C967.046 38.6582 965.283 38.2075 963.811 37.3062C962.347 36.4049 961.218 35.1599 960.424 33.5715C959.639 31.9741 959.246 30.1357 959.246 28.0564C959.246 25.9682 959.648 24.1254 960.451 22.528C961.254 20.9216 962.387 19.6723 963.851 18.7798C965.323 17.8785 967.064 17.4279 969.071 17.4279C970.74 17.4279 972.217 17.7357 973.502 18.3515C974.796 18.9583 975.827 19.8195 976.594 20.935C977.362 22.0416 977.799 23.3356 977.906 24.817H973.275C973.087 23.8264 972.641 23.0009 971.936 22.3405C971.24 21.6712 970.307 21.3366 969.138 21.3366C968.148 21.3366 967.278 21.6043 966.528 22.1398C965.778 22.6663 965.194 23.4248 964.775 24.4154C964.364 25.406 964.159 26.5929 964.159 27.9761C964.159 29.3772 964.364 30.5819 964.775 31.5903C965.185 32.5898 965.761 33.3617 966.501 33.9061C967.251 34.4416 968.13 34.7093 969.138 34.7093C969.852 34.7093 970.49 34.5754 971.053 34.3077C971.624 34.0311 972.101 33.6339 972.485 33.1163C972.869 32.5987 973.132 31.9696 973.275 31.2289H977.906C977.79 32.6835 977.362 33.973 976.621 35.0975C975.88 36.213 974.872 37.0875 973.596 37.7211C972.32 38.3458 970.821 38.6582 969.098 38.6582ZM981.885 38.2566V17.6956H986.584V21.1224H986.798C987.173 19.9355 987.815 19.0208 988.726 18.3783C989.645 17.7268 990.693 17.4011 991.871 17.4011C992.139 17.4011 992.438 17.4145 992.768 17.4412C993.107 17.4591 993.388 17.4903 993.611 17.5349V21.9925C993.406 21.9211 993.08 21.8586 992.634 21.8051C992.197 21.7426 991.773 21.7114 991.363 21.7114C990.479 21.7114 989.685 21.9033 988.98 22.287C988.284 22.6618 987.735 23.1839 987.333 23.8532C986.932 24.5225 986.731 25.2944 986.731 26.169V38.2566H981.885ZM996.831 38.2566V17.6956H1001.68V38.2566H996.831ZM999.267 14.7774C998.5 14.7774 997.839 14.5231 997.286 14.0144C996.733 13.4968 996.456 12.8766 996.456 12.1537C996.456 11.422 996.733 10.8017 997.286 10.2931C997.839 9.77548 998.5 9.51669 999.267 9.51669C1000.04 9.51669 1000.7 9.77548 1001.25 10.2931C1001.8 10.8017 1002.08 11.422 1002.08 12.1537C1002.08 12.8766 1001.8 13.4968 1001.25 14.0144C1000.7 14.5231 1000.04 14.7774 999.267 14.7774ZM1006.66 45.967V17.6956H1011.42V21.0956H1011.71C1011.96 20.5959 1012.31 20.0649 1012.76 19.5027C1013.22 18.9316 1013.83 18.4452 1014.61 18.0436C1015.39 17.6331 1016.38 17.4279 1017.58 17.4279C1019.17 17.4279 1020.6 17.8339 1021.88 18.646C1023.16 19.4492 1024.18 20.6405 1024.93 22.2201C1025.69 23.7907 1026.07 25.7183 1026.07 28.0029C1026.07 30.2606 1025.7 32.1793 1024.96 33.7589C1024.22 35.3384 1023.21 36.5432 1021.93 37.3731C1020.66 38.203 1019.21 38.618 1017.6 38.618C1016.42 38.618 1015.44 38.4217 1014.66 38.029C1013.89 37.6364 1013.26 37.1634 1012.79 36.6101C1012.33 36.0479 1011.96 35.5169 1011.71 35.0172H1011.51V45.967H1006.66ZM1011.41 27.9761C1011.41 29.3058 1011.6 30.4704 1011.97 31.4699C1012.36 32.4693 1012.91 33.2502 1013.62 33.8124C1014.34 34.3657 1015.22 34.6424 1016.24 34.6424C1017.31 34.6424 1018.21 34.3568 1018.93 33.7856C1019.66 33.2056 1020.2 32.4158 1020.57 31.4163C1020.94 30.4079 1021.13 29.2611 1021.13 27.9761C1021.13 26.6999 1020.95 25.5666 1020.58 24.576C1020.22 23.5855 1019.67 22.8091 1018.95 22.2468C1018.23 21.6846 1017.32 21.4035 1016.24 21.4035C1015.21 21.4035 1014.33 21.6757 1013.61 22.2201C1012.88 22.7644 1012.34 23.5274 1011.96 24.5091C1011.59 25.4907 1011.41 26.6464 1011.41 27.9761ZM1040.49 17.6956V21.4437H1028.67V17.6956H1040.49ZM1031.58 12.7695H1036.43V32.0722C1036.43 32.7237 1036.53 33.2234 1036.72 33.5715C1036.93 33.9106 1037.2 34.1426 1037.53 34.2675C1037.86 34.3925 1038.22 34.4549 1038.63 34.4549C1038.93 34.4549 1039.21 34.4326 1039.46 34.388C1039.71 34.3434 1039.91 34.3032 1040.04 34.2675L1040.86 38.0558C1040.6 38.145 1040.23 38.2432 1039.75 38.3503C1039.28 38.4574 1038.7 38.5199 1038.01 38.5377C1036.8 38.5734 1035.7 38.3905 1034.73 37.9889C1033.76 37.5784 1032.99 36.9448 1032.41 36.088C1031.85 35.2313 1031.58 34.1605 1031.58 32.8754V12.7695Z" fill="#A6A6A6"/>
<circle cx="1124.57" cy="23.8737" r="18.8476" fill="#A6A6A6"/>
<path d="M1132.11 23.8737C1132.11 28.7313 1128.17 32.6692 1123.32 32.6692C1118.46 32.6692 1114.52 28.7313 1114.52 23.8737C1114.52 19.016 1118.46 15.0781 1123.32 15.0781C1125.78 15.0781 1128 16.0889 1129.6 17.7181" stroke="white" stroke-width="2.51301"/>
<path d="M1127.09 26.3868L1132.11 23.8738L1135.25 28.2716" stroke="white" stroke-width="2.51301"/>
<path d="M1167.42 46.3953C1165.68 46.3953 1164.18 46.1588 1162.93 45.6859C1161.68 45.2218 1160.68 44.5971 1159.92 43.8118C1159.16 43.0265 1158.64 42.1564 1158.34 41.2015L1162.71 40.144C1162.9 40.5456 1163.19 40.9427 1163.56 41.3354C1163.94 41.737 1164.44 42.0672 1165.08 42.326C1165.72 42.5937 1166.53 42.7275 1167.5 42.7275C1168.87 42.7275 1170.01 42.3929 1170.91 41.7236C1171.81 41.0632 1172.26 39.9745 1172.26 38.4574V34.562H1172.02C1171.77 35.0618 1171.41 35.5749 1170.93 36.1014C1170.45 36.628 1169.82 37.0697 1169.04 37.4267C1168.26 37.7836 1167.28 37.9621 1166.11 37.9621C1164.53 37.9621 1163.09 37.5917 1161.81 36.8511C1160.53 36.1014 1159.52 34.9859 1158.76 33.5045C1158.01 32.0142 1157.63 30.1491 1157.63 27.9092C1157.63 25.6514 1158.01 23.7461 1158.76 22.1933C1159.52 20.6316 1160.54 19.4492 1161.82 18.646C1163.11 17.8339 1164.54 17.4279 1166.12 17.4279C1167.32 17.4279 1168.31 17.6331 1169.09 18.0436C1169.88 18.4452 1170.5 18.9316 1170.97 19.5027C1171.43 20.0649 1171.78 20.5959 1172.02 21.0956H1172.29V17.6956H1177.07V38.5912C1177.07 40.3493 1176.65 41.8039 1175.81 42.9551C1174.97 44.1063 1173.83 44.9675 1172.37 45.5386C1170.92 46.1098 1169.27 46.3953 1167.42 46.3953ZM1167.46 34.1605C1168.48 34.1605 1169.36 33.9106 1170.08 33.4108C1170.8 32.9111 1171.35 32.1927 1171.73 31.2557C1172.1 30.3186 1172.29 29.1942 1172.29 27.8824C1172.29 26.5884 1172.1 25.455 1171.73 24.4823C1171.36 23.5096 1170.82 22.7555 1170.1 22.2201C1169.38 21.6757 1168.5 21.4035 1167.46 21.4035C1166.38 21.4035 1165.48 21.6846 1164.75 22.2468C1164.03 22.8091 1163.49 23.581 1163.12 24.5626C1162.76 25.5354 1162.57 26.6419 1162.57 27.8824C1162.57 29.1407 1162.76 30.2428 1163.12 31.1887C1163.5 32.1258 1164.04 32.8575 1164.77 33.3841C1165.5 33.9017 1166.4 34.1605 1167.46 34.1605ZM1182.04 38.2566V17.6956H1186.73V21.1224H1186.95C1187.32 19.9355 1187.97 19.0208 1188.88 18.3783C1189.8 17.7268 1190.84 17.4011 1192.02 17.4011C1192.29 17.4011 1192.59 17.4145 1192.92 17.4412C1193.26 17.4591 1193.54 17.4903 1193.76 17.5349V21.9925C1193.56 21.9211 1193.23 21.8586 1192.78 21.8051C1192.35 21.7426 1191.92 21.7114 1191.51 21.7114C1190.63 21.7114 1189.84 21.9033 1189.13 22.287C1188.43 22.6618 1187.89 23.1839 1187.48 23.8532C1187.08 24.5225 1186.88 25.2944 1186.88 26.169V38.2566H1182.04ZM1202.53 38.6716C1201.23 38.6716 1200.05 38.4395 1199.01 37.9755C1197.97 37.5025 1197.15 36.8064 1196.55 35.8873C1195.95 34.9681 1195.65 33.8347 1195.65 32.4872C1195.65 31.3271 1195.86 30.3677 1196.29 29.6092C1196.72 28.8506 1197.3 28.2438 1198.05 27.7887C1198.79 27.3336 1199.62 26.99 1200.55 26.758C1201.49 26.517 1202.45 26.343 1203.45 26.2359C1204.66 26.111 1205.64 25.9994 1206.38 25.9012C1207.13 25.7942 1207.68 25.6335 1208.02 25.4193C1208.37 25.1962 1208.54 24.8527 1208.54 24.3886V24.3083C1208.54 23.2999 1208.24 22.519 1207.64 21.9657C1207.05 21.4124 1206.18 21.1358 1205.06 21.1358C1203.87 21.1358 1202.93 21.3946 1202.24 21.9122C1201.55 22.4298 1201.08 23.0411 1200.84 23.7461L1196.32 23.1036C1196.68 21.8542 1197.26 20.8101 1198.09 19.9712C1198.91 19.1234 1199.91 18.4898 1201.1 18.0704C1202.28 17.642 1203.6 17.4279 1205.03 17.4279C1206.02 17.4279 1207.01 17.5439 1207.99 17.7759C1208.97 18.0079 1209.87 18.3917 1210.68 18.9271C1211.49 19.4536 1212.15 20.172 1212.64 21.0823C1213.14 21.9925 1213.39 23.1303 1213.39 24.4957V38.2566H1208.73V35.4321H1208.57C1208.27 36.0033 1207.86 36.5387 1207.32 37.0385C1206.8 37.5293 1206.13 37.9264 1205.33 38.2298C1204.53 38.5243 1203.6 38.6716 1202.53 38.6716ZM1203.79 35.1109C1204.76 35.1109 1205.6 34.919 1206.32 34.5353C1207.03 34.1426 1207.58 33.625 1207.96 32.9825C1208.36 32.3399 1208.55 31.6394 1208.55 30.8809V28.458C1208.4 28.5829 1208.14 28.6989 1207.78 28.806C1207.42 28.9131 1207.02 29.0068 1206.57 29.0871C1206.13 29.1674 1205.68 29.2388 1205.25 29.3013C1204.81 29.3638 1204.43 29.4173 1204.11 29.4619C1203.39 29.5601 1202.74 29.7207 1202.17 29.9438C1201.6 30.1669 1201.15 30.4793 1200.82 30.8809C1200.49 31.2735 1200.32 31.7822 1200.32 32.4069C1200.32 33.2993 1200.65 33.973 1201.3 34.4282C1201.95 34.8833 1202.78 35.1109 1203.79 35.1109ZM1218.26 38.2566V17.6956H1222.89V21.1893H1223.13C1223.56 20.0114 1224.27 19.0922 1225.26 18.4318C1226.25 17.7625 1227.43 17.4279 1228.81 17.4279C1230.2 17.4279 1231.37 17.767 1232.33 18.4452C1233.29 19.1145 1233.97 20.0292 1234.36 21.1893H1234.58C1235.03 20.0471 1235.8 19.1368 1236.88 18.4586C1237.97 17.7714 1239.26 17.4279 1240.75 17.4279C1242.64 17.4279 1244.18 18.0258 1245.38 19.2216C1246.57 20.4174 1247.17 22.1621 1247.17 24.4555V38.2566H1242.31V25.2052C1242.31 23.929 1241.97 22.9965 1241.3 22.4075C1240.62 21.8096 1239.79 21.5106 1238.81 21.5106C1237.64 21.5106 1236.72 21.8765 1236.06 22.6083C1235.41 23.3311 1235.08 24.2726 1235.08 25.4327V38.2566H1230.33V25.0044C1230.33 23.9424 1230.01 23.0946 1229.37 22.461C1228.74 21.8274 1227.91 21.5106 1226.88 21.5106C1226.18 21.5106 1225.55 21.6891 1224.98 22.0461C1224.41 22.3941 1223.95 22.8894 1223.61 23.5319C1223.27 24.1655 1223.1 24.9062 1223.1 25.754V38.2566H1218.26ZM1252.09 38.2566V17.6956H1256.72V21.1893H1256.96C1257.39 20.0114 1258.1 19.0922 1259.09 18.4318C1260.08 17.7625 1261.26 17.4279 1262.64 17.4279C1264.03 17.4279 1265.2 17.767 1266.16 18.4452C1267.12 19.1145 1267.8 20.0292 1268.19 21.1893H1268.41C1268.86 20.0471 1269.63 19.1368 1270.71 18.4586C1271.8 17.7714 1273.09 17.4279 1274.58 17.4279C1276.47 17.4279 1278.01 18.0258 1279.21 19.2216C1280.4 20.4174 1281 22.1621 1281 24.4555V38.2566H1276.14V25.2052C1276.14 23.929 1275.8 22.9965 1275.13 22.4075C1274.45 21.8096 1273.62 21.5106 1272.64 21.5106C1271.47 21.5106 1270.55 21.8765 1269.89 22.6083C1269.24 23.3311 1268.91 24.2726 1268.91 25.4327V38.2566H1264.16V25.0044C1264.16 23.9424 1263.84 23.0946 1263.2 22.461C1262.57 21.8274 1261.74 21.5106 1260.71 21.5106C1260.01 21.5106 1259.38 21.6891 1258.81 22.0461C1258.24 22.3941 1257.78 22.8894 1257.44 23.5319C1257.1 24.1655 1256.93 24.9062 1256.93 25.754V38.2566H1252.09ZM1291.83 38.6716C1290.53 38.6716 1289.36 38.4395 1288.31 37.9755C1287.28 37.5025 1286.46 36.8064 1285.85 35.8873C1285.25 34.9681 1284.95 33.8347 1284.95 32.4872C1284.95 31.3271 1285.17 30.3677 1285.6 29.6092C1286.03 28.8506 1286.61 28.2438 1287.35 27.7887C1288.09 27.3336 1288.93 26.99 1289.85 26.758C1290.79 26.517 1291.76 26.343 1292.76 26.2359C1293.96 26.111 1294.94 25.9994 1295.69 25.9012C1296.44 25.7942 1296.98 25.6335 1297.32 25.4193C1297.67 25.1962 1297.85 24.8527 1297.85 24.3886V24.3083C1297.85 23.2999 1297.55 22.519 1296.95 21.9657C1296.35 21.4124 1295.49 21.1358 1294.36 21.1358C1293.18 21.1358 1292.24 21.3946 1291.54 21.9122C1290.85 22.4298 1290.39 23.0411 1290.15 23.7461L1285.62 23.1036C1285.98 21.8542 1286.57 20.8101 1287.39 19.9712C1288.21 19.1234 1289.22 18.4898 1290.4 18.0704C1291.59 17.642 1292.9 17.4279 1294.34 17.4279C1295.33 17.4279 1296.31 17.5439 1297.3 17.7759C1298.28 18.0079 1299.17 18.3917 1299.99 18.9271C1300.8 19.4536 1301.45 20.172 1301.94 21.0823C1302.44 21.9925 1302.69 23.1303 1302.69 24.4957V38.2566H1298.03V35.4321H1297.87C1297.58 36.0033 1297.16 36.5387 1296.63 37.0385C1296.1 37.5293 1295.44 37.9264 1294.63 38.2298C1293.84 38.5243 1292.91 38.6716 1291.83 38.6716ZM1293.09 35.1109C1294.07 35.1109 1294.91 34.919 1295.62 34.5353C1296.34 34.1426 1296.89 33.625 1297.27 32.9825C1297.66 32.3399 1297.86 31.6394 1297.86 30.8809V28.458C1297.71 28.5829 1297.45 28.6989 1297.08 28.806C1296.73 28.9131 1296.32 29.0068 1295.88 29.0871C1295.43 29.1674 1294.99 29.2388 1294.55 29.3013C1294.12 29.3638 1293.74 29.4173 1293.41 29.4619C1292.69 29.5601 1292.04 29.7207 1291.47 29.9438C1290.9 30.1669 1290.45 30.4793 1290.12 30.8809C1289.79 31.2735 1289.63 31.7822 1289.63 32.4069C1289.63 33.2993 1289.95 33.973 1290.6 34.4282C1291.25 34.8833 1292.08 35.1109 1293.09 35.1109ZM1307.56 38.2566V17.6956H1312.26V21.1224H1312.48C1312.85 19.9355 1313.49 19.0208 1314.4 18.3783C1315.32 17.7268 1316.37 17.4011 1317.55 17.4011C1317.82 17.4011 1318.12 17.4145 1318.45 17.4412C1318.79 17.4591 1319.07 17.4903 1319.29 17.5349V21.9925C1319.08 21.9211 1318.76 21.8586 1318.31 21.8051C1317.88 21.7426 1317.45 21.7114 1317.04 21.7114C1316.16 21.7114 1315.36 21.9033 1314.66 22.287C1313.96 22.6618 1313.41 23.1839 1313.01 23.8532C1312.61 24.5225 1312.41 25.2944 1312.41 26.169V38.2566H1307.56ZM1327.35 10.8419V38.2566H1322.51V10.8419H1327.35ZM1335.35 45.967C1334.69 45.967 1334.08 45.9134 1333.52 45.8063C1332.96 45.7082 1332.52 45.5922 1332.19 45.4583L1333.32 41.6834C1334.02 41.8887 1334.65 41.9868 1335.2 41.9779C1335.76 41.969 1336.24 41.795 1336.66 41.4559C1337.09 41.1257 1337.45 40.5724 1337.75 39.796L1338.16 38.6849L1330.7 17.6956H1335.84L1340.58 33.2234H1340.8L1345.55 17.6956H1350.7L1342.47 40.7464C1342.09 41.8351 1341.58 42.7677 1340.95 43.5441C1340.31 44.3294 1339.54 44.9273 1338.62 45.3378C1337.71 45.7573 1336.62 45.967 1335.35 45.967Z" fill="#A6A6A6"/>
</svg>
