<svg width="176" height="71" viewBox="0 0 176 71" fill="none" xmlns="http://www.w3.org/2000/svg">
<path d="M37.334 53.6667V21.6667M37.334 53.6667H42.6673M37.334 53.6667H24.0006M37.334 21.6667C37.334 15.7756 32.5584 11 26.6673 11H16.0007C10.1096 11 5.33398 15.7756 5.33398 21.6667V43C5.33398 47.9739 8.73843 52.1527 13.3442 53.3333M37.334 21.6667H45.8916C47.2466 21.6667 48.5508 22.1824 49.5393 23.1091L56.9817 30.0864C58.0571 31.0946 58.6673 32.5031 58.6673 33.9772V48.3333C58.6673 51.2789 56.2795 53.6667 53.334 53.6667M53.334 53.6667C53.334 56.6122 50.9462 59 48.0006 59C45.0551 59 42.6673 56.6122 42.6673 53.6667M53.334 53.6667C53.334 50.7211 50.9462 48.3333 48.0006 48.3333C45.0551 48.3333 42.6673 50.7211 42.6673 53.6667M24.0006 53.6667C24.0006 56.6122 21.6128 59 18.6673 59C15.7218 59 13.334 56.6122 13.334 53.6667C13.334 53.5547 13.3374 53.4435 13.3442 53.3333M24.0006 53.6667C24.0006 50.7211 21.6128 48.3333 18.6673 48.3333C15.8338 48.3333 13.5163 50.5431 13.3442 53.3333" stroke="#3BAC43" stroke-width="4"/>
<path d="M21.334 23V32.3333H28.0007" stroke="#3BAC43" stroke-width="4" stroke-linecap="round" stroke-linejoin="round"/>
<path d="M86.1564 50.4128C84.2299 50.4128 82.7949 50.0786 81.8513 49.4103C80.947 48.7026 80.4949 47.6017 80.4949 46.1077C80.4949 45.8718 80.4949 45.6359 80.4949 45.4C80.5342 45.1641 80.5735 44.9282 80.6128 44.6923C80.7308 43.788 81.006 42.6086 81.4385 41.1539C81.8709 39.6598 82.441 38.0086 83.1487 36.2C82.3624 36.1607 81.5564 36.1214 80.7308 36.0821C79.9051 36.0034 79.2367 35.9051 78.7256 35.7872C78.2145 35.6692 77.9786 35.5316 78.0179 35.3744C78.6077 33.6445 79.2367 32.4453 79.9051 31.7769C80.5735 31.0692 81.3991 30.7154 82.382 30.7154C82.9718 30.7154 83.5812 30.794 84.2102 30.9513C84.3675 30.9906 84.5248 31.0299 84.682 31.0692C84.8393 31.1086 85.0162 31.1479 85.2128 31.1872C85.8812 29.7718 86.5692 28.3564 87.2769 26.941C88.0239 25.5257 88.8102 24.1693 89.6359 22.8718C89.7931 22.6752 90.0684 22.2428 90.4615 21.5744C90.8547 20.906 91.2282 20.1983 91.582 19.4513C91.9752 18.7043 92.1718 18.1342 92.1718 17.7411C92.1718 17.3479 91.9162 17.2299 91.4051 17.3872C90.7367 17.6231 89.9504 18.1342 89.0461 18.9205C88.1419 19.7069 87.159 20.6111 86.0974 21.6334C85.0359 22.6556 83.9154 23.6581 82.7359 24.641C81.5957 25.5846 80.4162 26.3906 79.1974 27.059C78.0179 27.6881 76.8581 28.0026 75.7179 28.0026C75.4427 28.0026 75.1479 27.9829 74.8333 27.9436C74.5581 27.9043 74.2632 27.8257 73.9487 27.7077C73.2803 27.4718 72.9462 26.8821 72.9462 25.9385C72.9462 25.0342 73.2017 23.9727 73.7128 22.7539C74.2632 21.4958 74.9316 20.2966 75.7179 19.1564C75.9145 18.9205 76.2684 18.8026 76.7795 18.8026C77.2906 18.8026 77.4872 18.9205 77.3692 19.1564C77.1726 19.5103 77.0744 19.7855 77.0744 19.9821C77.0744 20.1 77.1137 20.159 77.1923 20.159C77.3103 20.159 77.3889 20.1983 77.4282 20.277C77.7427 20.4735 78.0966 20.5718 78.4897 20.5718C79.3154 20.5718 80.3769 20.2966 81.6743 19.7462C83.0111 19.1958 84.4461 18.5274 85.9795 17.7411C87.5521 16.9154 89.1051 16.1094 90.6384 15.3231C92.2111 14.5368 93.6658 13.9274 95.0025 13.4949C96.3393 13.0231 97.4401 12.8658 98.3051 13.0231C98.9735 13.1804 99.5632 13.6522 100.074 14.4385C100.625 15.2248 100.979 15.9129 101.136 16.5026C101.254 16.8564 101.313 17.2299 101.313 17.6231C101.313 17.977 101.234 18.3505 101.077 18.7436C100.959 19.0975 100.743 19.4906 100.428 19.9231C98.8162 22.0462 97.3025 24.1496 95.8872 26.2334C94.4718 28.2778 93.194 30.2829 92.0538 32.2487C92.2897 32.288 92.506 32.3274 92.7025 32.3667C92.8991 32.3667 93.0367 32.347 93.1154 32.3077C94.1376 32.2684 94.806 32.1898 95.1205 32.0718C95.4743 31.9539 95.6709 31.8752 95.7102 31.8359C94.6094 34.0769 92.7025 35.4923 89.9897 36.0821C88.7316 38.4804 87.7487 40.7017 87.041 42.7462C86.3333 44.7513 85.9795 46.4222 85.9795 47.759C85.9795 48.7419 86.1957 49.4889 86.6282 50C86.7068 50.1573 86.7461 50.2359 86.7461 50.2359C86.7461 50.3538 86.5496 50.4128 86.1564 50.4128ZM104.186 50.4128C101.67 50.4128 99.7039 50 98.2885 49.1744C96.8731 48.3487 96.1654 46.7564 96.1654 44.3974C96.1654 42.7462 96.421 41.0162 96.9321 39.2077C97.4825 37.3598 98.2492 35.571 99.2321 33.841C100.215 32.1111 101.375 30.5385 102.712 29.1231C104.048 27.7077 105.523 26.5872 107.135 25.7616C108.747 24.8966 110.457 24.4641 112.265 24.4641C113.445 24.4641 114.565 24.5624 115.627 24.759C116.688 24.9556 117.553 25.4077 118.222 26.1154C118.89 26.7838 119.224 27.8453 119.224 29.3C119.224 30.8334 118.812 32.8188 117.986 35.2564C117.16 37.694 116.04 40.0727 114.624 42.3923C114.546 42.7068 114.506 43.0214 114.506 43.3359C114.506 43.7684 114.585 44.2009 114.742 44.6333C114.939 45.0658 115.273 45.2821 115.745 45.2821C116.374 45.2821 117.023 44.8496 117.691 43.9846C118.399 43.0017 119.126 41.8222 119.873 40.4462C120.62 39.0701 121.19 37.9496 121.583 37.0846C121.662 36.8487 121.839 36.7308 122.114 36.7308C122.389 36.7308 122.625 36.8487 122.822 37.0846C123.058 37.3205 123.077 37.5957 122.881 37.9103C122.566 38.5 122.153 39.3257 121.642 40.3872C121.131 41.4094 120.541 42.4513 119.873 43.5128C119.205 44.5744 118.477 45.4197 117.691 46.0487C117.101 46.5205 116.472 46.7564 115.804 46.7564C115.018 46.7564 114.428 46.5795 114.035 46.2256C113.641 45.8325 113.327 45.2821 113.091 44.5744C111.833 46.265 110.437 47.6607 108.904 48.7615C107.371 49.8624 105.798 50.4128 104.186 50.4128ZM103.065 48.5846C103.498 48.5846 104.088 48.0145 104.835 46.8744C105.582 45.7342 106.388 44.2795 107.253 42.5103C108.118 40.7017 108.963 38.8735 109.789 37.0257C109.946 36.7111 110.201 36.141 110.555 35.3154C110.909 34.4504 111.283 33.5069 111.676 32.4846C112.069 31.4231 112.403 30.4009 112.678 29.418C112.953 28.4351 113.091 27.6487 113.091 27.059C113.091 26.3906 112.894 26.0564 112.501 26.0564C112.147 26.0564 111.695 26.4103 111.145 27.118C110.594 27.7863 109.985 28.671 109.317 29.7718C108.648 30.8727 108 32.0522 107.371 33.3103C106.742 34.5684 106.191 35.7479 105.719 36.8487C105.247 37.9496 104.756 39.188 104.245 40.5641C103.734 41.9402 103.301 43.2573 102.947 44.5154C102.633 45.7342 102.476 46.7171 102.476 47.4641C102.476 48.2111 102.672 48.5846 103.065 48.5846ZM128.087 50.4128C125.57 50.4128 123.605 50 122.189 49.1744C120.774 48.3487 120.066 46.7564 120.066 44.3974C120.066 42.7462 120.322 41.0162 120.833 39.2077C121.383 37.3598 122.15 35.571 123.133 33.841C124.116 32.1111 125.276 30.5385 126.612 29.1231C127.949 27.7077 129.423 26.5872 131.035 25.7616C132.647 24.8966 134.358 24.4641 136.166 24.4641C137.346 24.4641 138.466 24.5624 139.528 24.759C140.589 24.9556 141.454 25.4077 142.123 26.1154C142.791 26.7838 143.125 27.8453 143.125 29.3C143.125 30.8334 142.712 32.8188 141.887 35.2564C141.061 37.694 139.941 40.0727 138.525 42.3923C138.446 42.7068 138.407 43.0214 138.407 43.3359C138.407 43.7684 138.486 44.2009 138.643 44.6333C138.84 45.0658 139.174 45.2821 139.646 45.2821C140.275 45.2821 140.923 44.8496 141.592 43.9846C142.299 43.0017 143.027 41.8222 143.774 40.4462C144.521 39.0701 145.091 37.9496 145.484 37.0846C145.563 36.8487 145.74 36.7308 146.015 36.7308C146.29 36.7308 146.526 36.8487 146.723 37.0846C146.958 37.3205 146.978 37.5957 146.782 37.9103C146.467 38.5 146.054 39.3257 145.543 40.3872C145.032 41.4094 144.442 42.4513 143.774 43.5128C143.105 44.5744 142.378 45.4197 141.592 46.0487C141.002 46.5205 140.373 46.7564 139.705 46.7564C138.918 46.7564 138.329 46.5795 137.935 46.2256C137.542 45.8325 137.228 45.2821 136.992 44.5744C135.734 46.265 134.338 47.6607 132.805 48.7615C131.271 49.8624 129.699 50.4128 128.087 50.4128ZM126.966 48.5846C127.399 48.5846 127.988 48.0145 128.735 46.8744C129.482 45.7342 130.288 44.2795 131.153 42.5103C132.018 40.7017 132.864 38.8735 133.689 37.0257C133.846 36.7111 134.102 36.141 134.456 35.3154C134.81 34.4504 135.183 33.5069 135.576 32.4846C135.97 31.4231 136.304 30.4009 136.579 29.418C136.854 28.4351 136.992 27.6487 136.992 27.059C136.992 26.3906 136.795 26.0564 136.402 26.0564C136.048 26.0564 135.596 26.4103 135.046 27.118C134.495 27.7863 133.886 28.671 133.217 29.7718C132.549 30.8727 131.9 32.0522 131.271 33.3103C130.642 34.5684 130.092 35.7479 129.62 36.8487C129.148 37.9496 128.657 39.188 128.146 40.5641C127.635 41.9402 127.202 43.2573 126.848 44.5154C126.534 45.7342 126.376 46.7171 126.376 47.4641C126.376 48.2111 126.573 48.5846 126.966 48.5846ZM159.831 50.4128C159.005 50.4128 158.278 50.2556 157.649 49.941C156.666 49.4692 155.919 48.6436 155.408 47.4641C154.936 46.2846 154.759 45.0068 154.877 43.6308L154.287 44.7513C153.698 45.8915 152.872 47.0513 151.81 48.2308C150.828 49.3316 149.943 49.9607 149.157 50.1179C148.37 50.2752 147.663 50.3342 147.034 50.2949C145.657 50.1769 144.655 49.5282 144.026 48.3487C143.397 47.1299 143.082 45.7342 143.082 44.1615C143.082 42.3923 143.377 40.6624 143.967 38.9718C144.596 37.2419 145.382 35.453 146.326 33.6051C148.252 29.9881 150.218 27.5504 152.223 26.2923C154.228 24.9949 156.293 24.4052 158.416 24.5231C158.848 24.5624 159.418 24.6607 160.126 24.818C160.834 24.9359 161.463 25.0735 162.013 25.2308C162.721 24.0906 163.507 22.9701 164.372 21.8693C165.237 20.7684 166.141 19.8248 167.085 19.0385C168.068 18.2522 169.051 17.7804 170.034 17.6231C170.702 17.5052 171.351 17.4462 171.98 17.4462C173.002 17.4462 173.769 17.5445 174.28 17.7411C175.184 18.0949 175.636 18.4487 175.636 18.8026C175.636 19.0385 175.44 19.1564 175.046 19.1564C174.889 19.1564 174.673 19.2547 174.398 19.4513C174.122 19.6086 173.867 19.8052 173.631 20.0411C172.569 21.1026 171.37 22.5966 170.034 24.5231C168.697 26.4496 167.399 28.5923 166.141 30.9513C164.883 33.3103 163.782 35.6889 162.839 38.0872C162.445 39.1094 162.072 40.3479 161.718 41.8026C161.364 43.2573 161.187 44.5154 161.187 45.5769C161.187 46.206 161.266 46.7171 161.423 47.1103C161.581 47.4641 161.836 47.641 162.19 47.641C162.74 47.641 163.35 47.2872 164.018 46.5795C164.687 45.8325 165.355 44.9675 166.023 43.9846C166.928 42.7265 167.694 41.4487 168.323 40.1513C168.992 38.8539 169.503 37.871 169.857 37.2026C169.935 36.9667 170.132 36.8487 170.446 36.8487C170.722 36.8487 170.957 36.9667 171.154 37.2026C171.351 37.4385 171.351 37.7137 171.154 38.0282C170.407 39.4829 169.621 40.9966 168.795 42.5692C167.969 44.1026 167.045 45.5376 166.023 46.8744C165.316 47.818 164.411 48.6436 163.31 49.3513C162.21 50.059 161.05 50.4128 159.831 50.4128ZM150.041 47.4641C150.474 47.4641 151.063 46.9727 151.81 45.9897C152.597 44.9675 153.285 43.847 153.875 42.6282C153.993 42.3923 154.228 41.8615 154.582 41.0359C154.975 40.1709 155.428 39.1291 155.939 37.9103C156.489 36.6915 157.04 35.4137 157.59 34.0769C158.18 32.7402 158.73 31.4624 159.241 30.2436C159.752 29.0248 160.165 28.0026 160.48 27.1769C160.519 27.0983 160.539 26.9804 160.539 26.8231C160.539 26.4693 160.283 26.2923 159.772 26.2923C159.497 26.2923 159.182 26.3513 158.828 26.4693C158.514 26.5872 158.239 26.7445 158.003 26.941C157.374 27.4522 156.587 28.4154 155.644 29.8308C154.7 31.2462 153.757 32.9171 152.813 34.8436C151.869 36.7308 151.083 38.6769 150.454 40.6821C149.825 42.6479 149.51 44.4564 149.51 46.1077C149.51 47.012 149.687 47.4641 150.041 47.4641Z" fill="#3BAC43"/>
</svg>
